<?xml version="1.0" standalone="no"?>
<!DOCTYPE svg PUBLIC "-//W3C//DTD SVG 20010904//EN"
 "http://www.w3.org/TR/2001/REC-SVG-20010904/DTD/svg10.dtd">
<svg version="1.0" xmlns="http://www.w3.org/2000/svg"
 width="700.000000pt" height="700.000000pt" viewBox="0 0 700.000000 700.000000"
 preserveAspectRatio="xMidYMid meet">
<metadata>
Created by potrace 1.11, written by Peter Selinger 2001-2013
</metadata>
<g transform="translate(0.000000,700.000000) scale(0.100000,-0.100000)"
fill="#000000" stroke="none">
<path d="M10 6448 c0 -3 23 -43 51 -89 75 -125 154 -291 258 -544 85 -207 208
-452 282 -565 144 -219 354 -454 539 -603 244 -196 482 -288 745 -287 82 0
106 2 188 21 l48 11 42 -43 c237 -245 405 -567 500 -959 27 -108 33 -139 43
-200 3 -19 7 -41 9 -47 7 -20 34 -239 41 -328 19 -242 28 -595 15 -595 -5 0
-13 5 -16 10 -8 13 -79 45 -125 57 -78 21 -226 -6 -320 -58 -68 -38 -150 -121
-190 -193 -30 -53 -32 -54 -63 -45 -194 58 -385 32 -537 -73 -74 -50 -88 -64
-141 -129 -80 -98 -136 -218 -154 -332 -6 -37 -7 -38 -38 -31 -194 42 -444
-137 -502 -361 -43 -167 52 -371 216 -459 111 -61 -5 -57 2048 -61 l1876 -3
65 41 c158 100 274 220 315 329 39 105 -9 275 -106 376 -92 97 -192 139 -327
138 -75 -1 -92 2 -93 14 -6 143 -84 334 -167 412 -121 113 -250 131 -450 62
-40 -14 -75 -24 -76 -22 -2 1 -11 34 -20 72 -56 229 -197 327 -470 329 -55 0
-117 -3 -136 -6 -90 -17 -213 -69 -257 -110 -13 -11 -25 -19 -27 -16 -2 2 6
51 20 109 13 58 26 121 29 140 10 60 94 379 137 515 87 281 218 567 349 766
144 218 319 394 539 544 96 65 72 67 200 -12 80 -49 185 -90 293 -114 116 -25
364 -20 497 10 373 86 804 317 1104 590 22 20 126 120 230 222 105 103 213
206 240 230 27 24 61 55 75 68 14 13 66 53 115 90 l90 66 -70 7 c-38 3 -91 11
-119 18 -27 6 -61 14 -75 17 -14 2 -185 58 -380 123 -195 65 -366 121 -380
124 -14 3 -50 12 -80 20 -91 25 -239 51 -353 63 -464 47 -900 -99 -1204 -404
-152 -152 -264 -348 -309 -539 -14 -62 -23 -189 -13 -198 2 -2 47 21 99 51
260 149 552 278 775 344 133 39 495 125 610 144 45 8 142 25 164 30 14 2 45 7
70 10 25 3 57 7 71 9 128 22 353 40 330 26 -49 -28 -488 -194 -910 -343 -214
-76 -373 -136 -520 -197 -69 -28 -202 -82 -297 -120 -235 -94 -313 -129 -349
-156 -17 -13 -34 -24 -38 -24 -21 0 -216 -160 -311 -255 -222 -221 -396 -497
-536 -850 -46 -117 -131 -378 -155 -475 -30 -126 -39 -139 -43 -62 -5 120 -15
226 -26 302 -2 14 -7 45 -10 70 -5 42 -18 117 -28 165 -3 11 -8 40 -12 65 -18
110 -93 362 -139 465 -55 121 -140 289 -156 305 -3 3 -11 16 -19 30 -56 101
-186 245 -521 581 -201 201 -412 408 -470 461 -58 52 -157 141 -220 198 -116
104 -268 243 -344 313 -52 49 -232 225 -270 266 -59 62 301 -141 598 -336 200
-132 422 -297 541 -402 69 -61 258 -253 325 -330 36 -41 70 -79 75 -85 6 -6
44 -54 84 -106 41 -52 78 -99 82 -104 12 -14 47 72 65 157 68 323 -51 724
-300 1012 -221 255 -546 437 -911 511 -209 42 -358 58 -745 79 -123 7 -216 14
-260 20 -19 2 -54 7 -78 10 -38 5 -138 30 -199 50 -13 4 -23 5 -23 3z"/>
</g>
</svg>
